<svg width="1448" height="79" viewBox="0 0 1448 79" fill="none" xmlns="http://www.w3.org/2000/svg">
<g filter="url(#filter0_d_862_287)">
<rect width="1440" height="71" transform="translate(4)" fill="white"/>
<path d="M71.836 41.5H70.012L64.524 33.196V41.5H62.7V30.364H64.524L70.012 38.652V30.364H71.836V41.5ZM73.6233 37.052C73.6233 36.1667 73.8046 35.3827 74.1673 34.7C74.5406 34.0173 75.0419 33.4893 75.6713 33.116C76.3113 32.732 77.0153 32.54 77.7833 32.54C78.4766 32.54 79.0793 32.6787 79.5913 32.956C80.1139 33.2227 80.5299 33.5587 80.8393 33.964V32.684H82.6793V41.5H80.8393V40.188C80.5299 40.604 80.1086 40.9507 79.5753 41.228C79.0419 41.5053 78.4339 41.644 77.7513 41.644C76.9939 41.644 76.3006 41.452 75.6713 41.068C75.0419 40.6733 74.5406 40.1293 74.1673 39.436C73.8046 38.732 73.6233 37.9373 73.6233 37.052ZM80.8393 37.084C80.8393 36.476 80.7113 35.948 80.4553 35.5C80.2099 35.052 79.8846 34.7107 79.4793 34.476C79.0739 34.2413 78.6366 34.124 78.1673 34.124C77.6979 34.124 77.2606 34.2413 76.8553 34.476C76.4499 34.7 76.1193 35.036 75.8633 35.484C75.6179 35.9213 75.4953 36.444 75.4953 37.052C75.4953 37.66 75.6179 38.1933 75.8633 38.652C76.1193 39.1107 76.4499 39.4627 76.8553 39.708C77.2713 39.9427 77.7086 40.06 78.1673 40.06C78.6366 40.06 79.0739 39.9427 79.4793 39.708C79.8846 39.4733 80.2099 39.132 80.4553 38.684C80.7113 38.2253 80.8393 37.692 80.8393 37.084ZM86.899 33.996C87.2083 33.5693 87.6297 33.2227 88.163 32.956C88.707 32.6787 89.3097 32.54 89.971 32.54C90.7497 32.54 91.4537 32.7267 92.083 33.1C92.7123 33.4733 93.2083 34.0067 93.571 34.7C93.9337 35.3827 94.115 36.1667 94.115 37.052C94.115 37.9373 93.9337 38.732 93.571 39.436C93.2083 40.1293 92.707 40.6733 92.067 41.068C91.4377 41.452 90.739 41.644 89.971 41.644C89.2883 41.644 88.6803 41.5107 88.147 41.244C87.6243 40.9773 87.2083 40.636 86.899 40.22V41.5H85.075V29.66H86.899V33.996ZM92.259 37.052C92.259 36.444 92.131 35.9213 91.875 35.484C91.6297 35.036 91.299 34.7 90.883 34.476C90.4777 34.2413 90.0403 34.124 89.571 34.124C89.1123 34.124 88.675 34.2413 88.259 34.476C87.8537 34.7107 87.523 35.052 87.267 35.5C87.0217 35.948 86.899 36.476 86.899 37.084C86.899 37.692 87.0217 38.2253 87.267 38.684C87.523 39.132 87.8537 39.4733 88.259 39.708C88.675 39.9427 89.1123 40.06 89.571 40.06C90.0403 40.06 90.4777 39.9427 90.883 39.708C91.299 39.4627 91.6297 39.1107 91.875 38.652C92.131 38.1933 92.259 37.66 92.259 37.052ZM103.903 32.684V41.5H102.079V40.46C101.791 40.8227 101.412 41.1107 100.943 41.324C100.484 41.5267 99.9934 41.628 99.4708 41.628C98.7774 41.628 98.1534 41.484 97.5988 41.196C97.0548 40.908 96.6228 40.4813 96.3028 39.916C95.9934 39.3507 95.8388 38.668 95.8388 37.868V32.684H97.6468V37.596C97.6468 38.3853 97.8441 38.9933 98.2388 39.42C98.6334 39.836 99.1721 40.044 99.8548 40.044C100.537 40.044 101.076 39.836 101.471 39.42C101.876 38.9933 102.079 38.3853 102.079 37.596V32.684H103.903ZM108.133 33.964C108.4 33.516 108.752 33.1693 109.189 32.924C109.637 32.668 110.165 32.54 110.773 32.54V34.428H110.309C109.595 34.428 109.051 34.6093 108.677 34.972C108.315 35.3347 108.133 35.964 108.133 36.86V41.5H106.309V32.684H108.133V33.964ZM120.238 30.38C121.422 30.38 122.457 30.6093 123.342 31.068C124.238 31.516 124.926 32.1667 125.406 33.02C125.897 33.8627 126.142 34.8493 126.142 35.98C126.142 37.1107 125.897 38.092 125.406 38.924C124.926 39.756 124.238 40.396 123.342 40.844C122.457 41.2813 121.422 41.5 120.238 41.5H116.606V30.38H120.238ZM120.238 40.012C121.54 40.012 122.537 39.66 123.23 38.956C123.924 38.252 124.27 37.26 124.27 35.98C124.27 34.6893 123.924 33.6813 123.23 32.956C122.537 32.2307 121.54 31.868 120.238 31.868H118.43V40.012H120.238ZM136.03 36.876C136.03 37.2067 136.009 37.5053 135.966 37.772H129.23C129.283 38.476 129.545 39.0413 130.014 39.468C130.483 39.8947 131.059 40.108 131.742 40.108C132.723 40.108 133.417 39.6973 133.822 38.876H135.79C135.523 39.6867 135.038 40.3533 134.334 40.876C133.641 41.388 132.777 41.644 131.742 41.644C130.899 41.644 130.142 41.4573 129.47 41.084C128.809 40.7 128.286 40.1667 127.902 39.484C127.529 38.7907 127.342 37.9907 127.342 37.084C127.342 36.1773 127.523 35.3827 127.886 34.7C128.259 34.0067 128.777 33.4733 129.438 33.1C130.11 32.7267 130.878 32.54 131.742 32.54C132.574 32.54 133.315 32.7213 133.966 33.084C134.617 33.4467 135.123 33.9587 135.486 34.62C135.849 35.2707 136.03 36.0227 136.03 36.876ZM134.126 36.3C134.115 35.628 133.875 35.0893 133.406 34.684C132.937 34.2787 132.355 34.076 131.662 34.076C131.033 34.076 130.494 34.2787 130.046 34.684C129.598 35.0787 129.331 35.6173 129.246 36.3H134.126ZM141.233 39.868L143.729 32.684H145.665L142.305 41.5H140.129L136.785 32.684H138.737L141.233 39.868Z" fill="black"/>
<path d="M533.32 30.27V40H531.724V35.744H527.146V40H525.55V30.27H527.146V34.442H531.724V30.27H533.32ZM538.767 40.126C538.039 40.126 537.381 39.9627 536.793 39.636C536.205 39.3 535.743 38.8333 535.407 38.236C535.071 37.6293 534.903 36.9293 534.903 36.136C534.903 35.352 535.076 34.6567 535.421 34.05C535.766 33.4433 536.238 32.9767 536.835 32.65C537.432 32.3233 538.1 32.16 538.837 32.16C539.574 32.16 540.242 32.3233 540.839 32.65C541.436 32.9767 541.908 33.4433 542.253 34.05C542.598 34.6567 542.771 35.352 542.771 36.136C542.771 36.92 542.594 37.6153 542.239 38.222C541.884 38.8287 541.399 39.3 540.783 39.636C540.176 39.9627 539.504 40.126 538.767 40.126ZM538.767 38.74C539.178 38.74 539.56 38.642 539.915 38.446C540.279 38.25 540.573 37.956 540.797 37.564C541.021 37.172 541.133 36.696 541.133 36.136C541.133 35.576 541.026 35.1047 540.811 34.722C540.596 34.33 540.312 34.036 539.957 33.84C539.602 33.644 539.22 33.546 538.809 33.546C538.398 33.546 538.016 33.644 537.661 33.84C537.316 34.036 537.04 34.33 536.835 34.722C536.63 35.1047 536.527 35.576 536.527 36.136C536.527 36.9667 536.737 37.6107 537.157 38.068C537.586 38.516 538.123 38.74 538.767 38.74ZM553.687 32.16C554.293 32.16 554.835 32.286 555.311 32.538C555.796 32.79 556.174 33.1633 556.445 33.658C556.725 34.1527 556.865 34.75 556.865 35.45V40H555.283V35.688C555.283 34.9973 555.11 34.47 554.765 34.106C554.419 33.7327 553.948 33.546 553.351 33.546C552.753 33.546 552.277 33.7327 551.923 34.106C551.577 34.47 551.405 34.9973 551.405 35.688V40H549.823V35.688C549.823 34.9973 549.65 34.47 549.305 34.106C548.959 33.7327 548.488 33.546 547.891 33.546C547.293 33.546 546.817 33.7327 546.463 34.106C546.117 34.47 545.945 34.9973 545.945 35.688V40H544.349V32.286H545.945V33.168C546.206 32.8507 546.537 32.6033 546.939 32.426C547.34 32.2487 547.769 32.16 548.227 32.16C548.843 32.16 549.393 32.2907 549.879 32.552C550.364 32.8133 550.737 33.1913 550.999 33.686C551.232 33.2193 551.596 32.8507 552.091 32.58C552.585 32.3 553.117 32.16 553.687 32.16ZM565.966 35.954C565.966 36.2433 565.947 36.5047 565.91 36.738H560.016C560.062 37.354 560.291 37.8487 560.702 38.222C561.112 38.5953 561.616 38.782 562.214 38.782C563.072 38.782 563.679 38.4227 564.034 37.704H565.756C565.522 38.4133 565.098 38.9967 564.482 39.454C563.875 39.902 563.119 40.126 562.214 40.126C561.476 40.126 560.814 39.9627 560.226 39.636C559.647 39.3 559.19 38.8333 558.854 38.236C558.527 37.6293 558.364 36.9293 558.364 36.136C558.364 35.3427 558.522 34.6473 558.84 34.05C559.166 33.4433 559.619 32.9767 560.198 32.65C560.786 32.3233 561.458 32.16 562.214 32.16C562.942 32.16 563.59 32.3187 564.16 32.636C564.729 32.9533 565.172 33.4013 565.49 33.98C565.807 34.5493 565.966 35.2073 565.966 35.954ZM564.3 35.45C564.29 34.862 564.08 34.3907 563.67 34.036C563.259 33.6813 562.75 33.504 562.144 33.504C561.593 33.504 561.122 33.6813 560.73 34.036C560.338 34.3813 560.104 34.8527 560.03 35.45H564.3Z" fill="#40A578"/>
<path d="M586.367 35.1C586.367 34.1387 586.577 33.28 586.997 32.524C587.417 31.7587 587.991 31.166 588.719 30.746C589.447 30.3167 590.259 30.102 591.155 30.102C592.247 30.102 593.181 30.3633 593.955 30.886C594.739 31.3993 595.309 32.1273 595.663 33.07H594.515C594.235 32.4073 593.806 31.8893 593.227 31.516C592.658 31.1427 591.967 30.956 591.155 30.956C590.437 30.956 589.788 31.124 589.209 31.46C588.64 31.796 588.192 32.2813 587.865 32.916C587.539 33.5413 587.375 34.2693 587.375 35.1C587.375 35.9307 587.539 36.6587 587.865 37.284C588.192 37.9093 588.64 38.39 589.209 38.726C589.788 39.062 590.437 39.23 591.155 39.23C591.967 39.23 592.658 39.048 593.227 38.684C593.806 38.3107 594.235 37.7973 594.515 37.144H595.663C595.309 38.0773 594.739 38.8007 593.955 39.314C593.171 39.8273 592.238 40.084 591.155 40.084C590.259 40.084 589.447 39.874 588.719 39.454C587.991 39.0247 587.417 38.432 586.997 37.676C586.577 36.92 586.367 36.0613 586.367 35.1ZM600.962 40.112C600.243 40.112 599.595 39.9533 599.016 39.636C598.447 39.3093 597.994 38.852 597.658 38.264C597.331 37.6667 597.168 36.9713 597.168 36.178C597.168 35.3847 597.336 34.694 597.672 34.106C598.008 33.5087 598.465 33.0513 599.044 32.734C599.623 32.4073 600.271 32.244 600.99 32.244C601.709 32.244 602.357 32.4073 602.936 32.734C603.524 33.0513 603.981 33.5087 604.308 34.106C604.644 34.694 604.812 35.3847 604.812 36.178C604.812 36.962 604.644 37.6527 604.308 38.25C603.972 38.8473 603.51 39.3093 602.922 39.636C602.334 39.9533 601.681 40.112 600.962 40.112ZM600.962 39.258C601.466 39.258 601.933 39.146 602.362 38.922C602.791 38.6887 603.137 38.3433 603.398 37.886C603.669 37.4193 603.804 36.85 603.804 36.178C603.804 35.506 603.673 34.9413 603.412 34.484C603.151 34.0173 602.805 33.672 602.376 33.448C601.947 33.2147 601.48 33.098 600.976 33.098C600.472 33.098 600.005 33.2147 599.576 33.448C599.147 33.672 598.801 34.0173 598.54 34.484C598.288 34.9413 598.162 35.506 598.162 36.178C598.162 36.85 598.288 37.4193 598.54 37.886C598.801 38.3433 599.142 38.6887 599.562 38.922C599.991 39.146 600.458 39.258 600.962 39.258ZM610.183 32.216C611.097 32.216 611.844 32.5007 612.423 33.07C613.001 33.63 613.291 34.4467 613.291 35.52V40H612.325V35.632C612.325 34.8013 612.115 34.1667 611.695 33.728C611.284 33.2893 610.719 33.07 610.001 33.07C609.263 33.07 608.675 33.3033 608.237 33.77C607.798 34.2367 607.579 34.9227 607.579 35.828V40H606.599V32.356H607.579V33.658C607.821 33.1913 608.171 32.8367 608.629 32.594C609.086 32.342 609.604 32.216 610.183 32.216ZM616.732 33.182V37.928C616.732 38.3947 616.821 38.7167 616.998 38.894C617.175 39.0713 617.488 39.16 617.936 39.16H618.832V40H617.782C617.091 40 616.578 39.8413 616.242 39.524C615.906 39.1973 615.738 38.6653 615.738 37.928V33.182H614.674V32.356H615.738V30.438H616.732V32.356H618.832V33.182H616.732ZM620 36.164C620 35.38 620.154 34.694 620.462 34.106C620.779 33.5087 621.213 33.0513 621.764 32.734C622.324 32.4073 622.954 32.244 623.654 32.244C624.382 32.244 625.007 32.412 625.53 32.748C626.062 33.084 626.445 33.5133 626.678 34.036V32.356H627.658V40H626.678V38.306C626.435 38.8287 626.048 39.2627 625.516 39.608C624.993 39.944 624.368 40.112 623.64 40.112C622.949 40.112 622.324 39.9487 621.764 39.622C621.213 39.2953 620.779 38.8333 620.462 38.236C620.154 37.6387 620 36.948 620 36.164ZM626.678 36.178C626.678 35.562 626.552 35.0207 626.3 34.554C626.048 34.0873 625.703 33.728 625.264 33.476C624.835 33.224 624.359 33.098 623.836 33.098C623.295 33.098 622.809 33.2193 622.38 33.462C621.951 33.7047 621.61 34.0593 621.358 34.526C621.115 34.9833 620.994 35.5293 620.994 36.164C620.994 36.7893 621.115 37.34 621.358 37.816C621.61 38.2827 621.951 38.642 622.38 38.894C622.809 39.1367 623.295 39.258 623.836 39.258C624.359 39.258 624.835 39.132 625.264 38.88C625.703 38.628 626.048 38.2687 626.3 37.802C626.552 37.3353 626.678 36.794 626.678 36.178ZM629.447 36.178C629.447 35.3847 629.606 34.694 629.923 34.106C630.241 33.5087 630.679 33.0513 631.239 32.734C631.799 32.4073 632.439 32.244 633.157 32.244C634.1 32.244 634.875 32.4773 635.481 32.944C636.097 33.4107 636.494 34.0453 636.671 34.848H635.621C635.491 34.2973 635.206 33.868 634.767 33.56C634.338 33.2427 633.801 33.084 633.157 33.084C632.644 33.084 632.182 33.2007 631.771 33.434C631.361 33.6673 631.034 34.0173 630.791 34.484C630.558 34.9413 630.441 35.506 630.441 36.178C630.441 36.85 630.558 37.4193 630.791 37.886C631.034 38.3527 631.361 38.7027 631.771 38.936C632.182 39.1693 632.644 39.286 633.157 39.286C633.801 39.286 634.338 39.132 634.767 38.824C635.206 38.5067 635.491 38.068 635.621 37.508H636.671C636.494 38.292 636.097 38.922 635.481 39.398C634.865 39.874 634.091 40.112 633.157 40.112C632.439 40.112 631.799 39.9533 631.239 39.636C630.679 39.3093 630.241 38.852 629.923 38.264C629.606 37.6667 629.447 36.9713 629.447 36.178ZM639.755 33.182V37.928C639.755 38.3947 639.844 38.7167 640.021 38.894C640.199 39.0713 640.511 39.16 640.959 39.16H641.855V40H640.805C640.115 40 639.601 39.8413 639.265 39.524C638.929 39.1973 638.761 38.6653 638.761 37.928V33.182H637.697V32.356H638.761V30.438H639.755V32.356H641.855V33.182H639.755ZM648.251 30.214V36.374C648.251 37.3447 648.48 38.0633 648.937 38.53C649.404 38.9967 650.039 39.23 650.841 39.23C651.644 39.23 652.269 39.0013 652.717 38.544C653.175 38.0773 653.403 37.354 653.403 36.374V30.214H654.383V36.36C654.383 37.6013 654.052 38.5347 653.389 39.16C652.736 39.7853 651.882 40.098 650.827 40.098C649.773 40.098 648.914 39.7853 648.251 39.16C647.598 38.5347 647.271 37.6013 647.271 36.36V30.214H648.251ZM659.201 40.112C658.324 40.112 657.605 39.9113 657.045 39.51C656.495 39.0993 656.187 38.544 656.121 37.844H657.129C657.176 38.2733 657.377 38.6233 657.731 38.894C658.095 39.1553 658.581 39.286 659.187 39.286C659.719 39.286 660.135 39.16 660.433 38.908C660.741 38.656 660.895 38.3433 660.895 37.97C660.895 37.7087 660.811 37.494 660.643 37.326C660.475 37.158 660.261 37.0273 659.999 36.934C659.747 36.8313 659.402 36.724 658.963 36.612C658.394 36.4627 657.932 36.3133 657.577 36.164C657.223 36.0147 656.919 35.7953 656.667 35.506C656.425 35.2073 656.303 34.8107 656.303 34.316C656.303 33.9427 656.415 33.5973 656.639 33.28C656.863 32.9627 657.181 32.7107 657.591 32.524C658.002 32.3373 658.469 32.244 658.991 32.244C659.813 32.244 660.475 32.454 660.979 32.874C661.483 33.2847 661.754 33.854 661.791 34.582H660.811C660.783 34.134 660.606 33.7747 660.279 33.504C659.962 33.224 659.523 33.084 658.963 33.084C658.469 33.084 658.067 33.2007 657.759 33.434C657.451 33.6673 657.297 33.9567 657.297 34.302C657.297 34.6007 657.386 34.848 657.563 35.044C657.75 35.2307 657.979 35.38 658.249 35.492C658.52 35.5947 658.884 35.7113 659.341 35.842C659.892 35.9913 660.331 36.136 660.657 36.276C660.984 36.416 661.264 36.6213 661.497 36.892C661.731 37.1627 661.852 37.522 661.861 37.97C661.861 38.3807 661.749 38.7493 661.525 39.076C661.301 39.3933 660.989 39.6453 660.587 39.832C660.186 40.0187 659.724 40.112 659.201 40.112ZM687.493 34.946C688.044 35.0487 688.51 35.3287 688.893 35.786C689.276 36.2433 689.467 36.7753 689.467 37.382C689.467 37.8767 689.341 38.3247 689.089 38.726C688.846 39.118 688.487 39.4307 688.011 39.664C687.535 39.888 686.966 40 686.303 40H682.915V30.214H686.205C687.194 30.214 687.946 30.4427 688.459 30.9C688.982 31.3573 689.243 31.95 689.243 32.678C689.243 33.2847 689.08 33.7793 688.753 34.162C688.426 34.5353 688.006 34.7967 687.493 34.946ZM683.895 34.54H686.177C686.84 34.54 687.348 34.386 687.703 34.078C688.067 33.7607 688.249 33.3267 688.249 32.776C688.249 32.2347 688.067 31.81 687.703 31.502C687.348 31.194 686.826 31.04 686.135 31.04H683.895V34.54ZM686.233 39.174C686.942 39.174 687.493 39.006 687.885 38.67C688.286 38.334 688.487 37.872 688.487 37.284C688.487 36.696 688.277 36.2293 687.857 35.884C687.446 35.5293 686.891 35.352 686.191 35.352H683.895V39.174H686.233ZM692.248 29.64V40H691.268V29.64H692.248ZM697.814 40.112C697.095 40.112 696.446 39.9533 695.868 39.636C695.298 39.3093 694.846 38.852 694.51 38.264C694.183 37.6667 694.02 36.9713 694.02 36.178C694.02 35.3847 694.188 34.694 694.524 34.106C694.86 33.5087 695.317 33.0513 695.896 32.734C696.474 32.4073 697.123 32.244 697.842 32.244C698.56 32.244 699.209 32.4073 699.788 32.734C700.376 33.0513 700.833 33.5087 701.16 34.106C701.496 34.694 701.664 35.3847 701.664 36.178C701.664 36.962 701.496 37.6527 701.16 38.25C700.824 38.8473 700.362 39.3093 699.774 39.636C699.186 39.9533 698.532 40.112 697.814 40.112ZM697.814 39.258C698.318 39.258 698.784 39.146 699.214 38.922C699.643 38.6887 699.988 38.3433 700.25 37.886C700.52 37.4193 700.656 36.85 700.656 36.178C700.656 35.506 700.525 34.9413 700.264 34.484C700.002 34.0173 699.657 33.672 699.228 33.448C698.798 33.2147 698.332 33.098 697.828 33.098C697.324 33.098 696.857 33.2147 696.428 33.448C695.998 33.672 695.653 34.0173 695.392 34.484C695.14 34.9413 695.014 35.506 695.014 36.178C695.014 36.85 695.14 37.4193 695.392 37.886C695.653 38.3433 695.994 38.6887 696.414 38.922C696.843 39.146 697.31 39.258 697.814 39.258ZM706.656 32.244C707.375 32.244 708 32.412 708.532 32.748C709.064 33.084 709.447 33.5087 709.68 34.022V32.356H710.66V40.196C710.66 40.896 710.506 41.5167 710.198 42.058C709.899 42.5993 709.479 43.0147 708.938 43.304C708.397 43.6027 707.781 43.752 707.09 43.752C706.11 43.752 705.293 43.5187 704.64 43.052C703.996 42.5853 703.595 41.9507 703.436 41.148H704.402C704.57 41.68 704.887 42.1047 705.354 42.422C705.83 42.7393 706.409 42.898 707.09 42.898C707.585 42.898 708.028 42.7907 708.42 42.576C708.812 42.3707 709.12 42.0627 709.344 41.652C709.568 41.2413 709.68 40.756 709.68 40.196V38.306C709.437 38.8287 709.05 39.2627 708.518 39.608C707.995 39.944 707.375 40.112 706.656 40.112C705.956 40.112 705.326 39.9487 704.766 39.622C704.215 39.2953 703.781 38.8333 703.464 38.236C703.156 37.6387 703.002 36.948 703.002 36.164C703.002 35.38 703.156 34.694 703.464 34.106C703.781 33.5087 704.215 33.0513 704.766 32.734C705.326 32.4073 705.956 32.244 706.656 32.244ZM709.68 36.178C709.68 35.562 709.554 35.0207 709.302 34.554C709.05 34.0873 708.705 33.728 708.266 33.476C707.837 33.224 707.361 33.098 706.838 33.098C706.297 33.098 705.811 33.2193 705.382 33.462C704.953 33.7047 704.612 34.0593 704.36 34.526C704.117 34.9833 703.996 35.5293 703.996 36.164C703.996 36.7893 704.117 37.34 704.36 37.816C704.612 38.2827 704.953 38.642 705.382 38.894C705.811 39.1367 706.297 39.258 706.838 39.258C707.361 39.258 707.837 39.132 708.266 38.88C708.705 38.628 709.05 38.2687 709.302 37.802C709.554 37.3353 709.68 36.794 709.68 36.178ZM733.086 31.012V34.666H736.796V35.478H733.086V39.188H737.216V40H732.106V30.2H737.216V31.012H733.086ZM741.863 39.048L744.439 32.356H745.475L742.409 40H741.303L738.237 32.356H739.287L741.863 39.048ZM753.72 35.786C753.72 36.122 753.71 36.3787 753.692 36.556H747.35C747.378 37.1347 747.518 37.6293 747.77 38.04C748.022 38.4507 748.353 38.7633 748.764 38.978C749.174 39.1833 749.622 39.286 750.108 39.286C750.742 39.286 751.274 39.132 751.704 38.824C752.142 38.516 752.432 38.1007 752.572 37.578H753.608C753.421 38.3247 753.02 38.936 752.404 39.412C751.797 39.8787 751.032 40.112 750.108 40.112C749.389 40.112 748.745 39.9533 748.176 39.636C747.606 39.3093 747.158 38.852 746.832 38.264C746.514 37.6667 746.356 36.9713 746.356 36.178C746.356 35.3847 746.514 34.6893 746.832 34.092C747.149 33.4947 747.592 33.0373 748.162 32.72C748.731 32.4027 749.38 32.244 750.108 32.244C750.836 32.244 751.47 32.4027 752.012 32.72C752.562 33.0373 752.982 33.4667 753.272 34.008C753.57 34.54 753.72 35.1327 753.72 35.786ZM752.726 35.758C752.735 35.1887 752.618 34.7033 752.376 34.302C752.142 33.9007 751.82 33.5973 751.41 33.392C750.999 33.1867 750.551 33.084 750.066 33.084C749.338 33.084 748.717 33.3173 748.204 33.784C747.69 34.2507 747.406 34.9087 747.35 35.758H752.726ZM759.097 32.216C760.011 32.216 760.758 32.5007 761.337 33.07C761.915 33.63 762.205 34.4467 762.205 35.52V40H761.239V35.632C761.239 34.8013 761.029 34.1667 760.609 33.728C760.198 33.2893 759.633 33.07 758.915 33.07C758.177 33.07 757.589 33.3033 757.151 33.77C756.712 34.2367 756.493 34.9227 756.493 35.828V40H755.513V32.356H756.493V33.658C756.735 33.1913 757.085 32.8367 757.543 32.594C758 32.342 758.518 32.216 759.097 32.216ZM765.646 33.182V37.928C765.646 38.3947 765.735 38.7167 765.912 38.894C766.089 39.0713 766.402 39.16 766.85 39.16H767.746V40H766.696C766.005 40 765.492 39.8413 765.156 39.524C764.82 39.1973 764.652 38.6653 764.652 37.928V33.182H763.588V32.356H764.652V30.438H765.646V32.356H767.746V33.182H765.646ZM794.829 33.028C794.829 33.868 794.554 34.5447 794.003 35.058C793.453 35.5713 792.627 35.828 791.525 35.828H789.551V40H788.571V30.214H791.525C792.617 30.214 793.439 30.4707 793.989 30.984C794.549 31.4973 794.829 32.1787 794.829 33.028ZM791.525 34.988C793.056 34.988 793.821 34.3347 793.821 33.028C793.821 32.3747 793.639 31.88 793.275 31.544C792.911 31.208 792.328 31.04 791.525 31.04H789.551V34.988H791.525ZM797.454 33.714C797.668 33.238 797.995 32.8693 798.434 32.608C798.882 32.3467 799.428 32.216 800.072 32.216V33.238H799.806C799.096 33.238 798.527 33.4293 798.098 33.812C797.668 34.1947 797.454 34.834 797.454 35.73V40H796.474V32.356H797.454V33.714ZM804.892 40.112C804.173 40.112 803.524 39.9533 802.946 39.636C802.376 39.3093 801.924 38.852 801.588 38.264C801.261 37.6667 801.098 36.9713 801.098 36.178C801.098 35.3847 801.266 34.694 801.602 34.106C801.938 33.5087 802.395 33.0513 802.974 32.734C803.552 32.4073 804.201 32.244 804.92 32.244C805.638 32.244 806.287 32.4073 806.866 32.734C807.454 33.0513 807.911 33.5087 808.238 34.106C808.574 34.694 808.742 35.3847 808.742 36.178C808.742 36.962 808.574 37.6527 808.238 38.25C807.902 38.8473 807.44 39.3093 806.852 39.636C806.264 39.9533 805.61 40.112 804.892 40.112ZM804.892 39.258C805.396 39.258 805.862 39.146 806.292 38.922C806.721 38.6887 807.066 38.3433 807.328 37.886C807.598 37.4193 807.734 36.85 807.734 36.178C807.734 35.506 807.603 34.9413 807.342 34.484C807.08 34.0173 806.735 33.672 806.306 33.448C805.876 33.2147 805.41 33.098 804.906 33.098C804.402 33.098 803.935 33.2147 803.506 33.448C803.076 33.672 802.731 34.0173 802.47 34.484C802.218 34.9413 802.092 35.506 802.092 36.178C802.092 36.85 802.218 37.4193 802.47 37.886C802.731 38.3433 803.072 38.6887 803.492 38.922C803.921 39.146 804.388 39.258 804.892 39.258ZM810.08 36.164C810.08 35.38 810.239 34.694 810.556 34.106C810.874 33.5087 811.308 33.0513 811.858 32.734C812.418 32.4073 813.048 32.244 813.748 32.244C814.42 32.244 815.027 32.4073 815.568 32.734C816.11 33.0607 816.506 33.4853 816.758 34.008V29.64H817.738V40H816.758V38.292C816.525 38.824 816.142 39.2627 815.61 39.608C815.078 39.944 814.453 40.112 813.734 40.112C813.034 40.112 812.404 39.9487 811.844 39.622C811.294 39.2953 810.86 38.8333 810.542 38.236C810.234 37.6387 810.08 36.948 810.08 36.164ZM816.758 36.178C816.758 35.562 816.632 35.0207 816.38 34.554C816.128 34.0873 815.783 33.728 815.344 33.476C814.915 33.224 814.439 33.098 813.916 33.098C813.375 33.098 812.89 33.2193 812.46 33.462C812.031 33.7047 811.69 34.0593 811.438 34.526C811.196 34.9833 811.074 35.5293 811.074 36.164C811.074 36.7893 811.196 37.34 811.438 37.816C811.69 38.2827 812.031 38.642 812.46 38.894C812.89 39.1367 813.375 39.258 813.916 39.258C814.439 39.258 814.915 39.132 815.344 38.88C815.783 38.628 816.128 38.2687 816.38 37.802C816.632 37.3353 816.758 36.794 816.758 36.178ZM826.597 32.356V40H825.617V38.656C825.393 39.132 825.048 39.496 824.581 39.748C824.115 40 823.592 40.126 823.013 40.126C822.099 40.126 821.352 39.846 820.773 39.286C820.195 38.7167 819.905 37.8953 819.905 36.822V32.356H820.871V36.71C820.871 37.5407 821.077 38.1753 821.487 38.614C821.907 39.0527 822.477 39.272 823.195 39.272C823.933 39.272 824.521 39.0387 824.959 38.572C825.398 38.1053 825.617 37.4193 825.617 36.514V32.356H826.597ZM828.387 36.178C828.387 35.3847 828.546 34.694 828.863 34.106C829.18 33.5087 829.619 33.0513 830.179 32.734C830.739 32.4073 831.378 32.244 832.097 32.244C833.04 32.244 833.814 32.4773 834.421 32.944C835.037 33.4107 835.434 34.0453 835.611 34.848H834.561C834.43 34.2973 834.146 33.868 833.707 33.56C833.278 33.2427 832.741 33.084 832.097 33.084C831.584 33.084 831.122 33.2007 830.711 33.434C830.3 33.6673 829.974 34.0173 829.731 34.484C829.498 34.9413 829.381 35.506 829.381 36.178C829.381 36.85 829.498 37.4193 829.731 37.886C829.974 38.3527 830.3 38.7027 830.711 38.936C831.122 39.1693 831.584 39.286 832.097 39.286C832.741 39.286 833.278 39.132 833.707 38.824C834.146 38.5067 834.43 38.068 834.561 37.508H835.611C835.434 38.292 835.037 38.922 834.421 39.398C833.805 39.874 833.03 40.112 832.097 40.112C831.378 40.112 830.739 39.9533 830.179 39.636C829.619 39.3093 829.18 38.852 828.863 38.264C828.546 37.6667 828.387 36.9713 828.387 36.178ZM838.695 33.182V37.928C838.695 38.3947 838.783 38.7167 838.961 38.894C839.138 39.0713 839.451 39.16 839.899 39.16H840.795V40H839.745C839.054 40 838.541 39.8413 838.205 39.524C837.869 39.1973 837.701 38.6653 837.701 37.928V33.182H836.637V32.356H837.701V30.438H838.695V32.356H840.795V33.182H838.695Z" fill="black"/>
<rect x="531" y="42" width="30" height="2" rx="1" fill="#40A578"/>
<rect x="1219.5" y="10" width="84" height="51" rx="5" fill="#40A578"/>
<path d="M1240.15 41.105C1239.42 41.105 1238.76 40.98 1238.17 40.73C1237.59 40.48 1237.13 40.12 1236.79 39.65C1236.45 39.18 1236.28 38.625 1236.27 37.985H1238.52C1238.55 38.415 1238.7 38.755 1238.97 39.005C1239.25 39.255 1239.63 39.38 1240.11 39.38C1240.6 39.38 1240.98 39.265 1241.26 39.035C1241.54 38.795 1241.68 38.485 1241.68 38.105C1241.68 37.795 1241.59 37.54 1241.4 37.34C1241.21 37.14 1240.97 36.985 1240.68 36.875C1240.4 36.755 1240.01 36.625 1239.51 36.485C1238.83 36.285 1238.27 36.09 1237.84 35.9C1237.42 35.7 1237.06 35.405 1236.75 35.015C1236.45 34.615 1236.3 34.085 1236.3 33.425C1236.3 32.805 1236.45 32.265 1236.76 31.805C1237.07 31.345 1237.51 30.995 1238.07 30.755C1238.63 30.505 1239.27 30.38 1239.99 30.38C1241.07 30.38 1241.94 30.645 1242.61 31.175C1243.29 31.695 1243.67 32.425 1243.74 33.365H1241.43C1241.41 33.005 1241.25 32.71 1240.96 32.48C1240.68 32.24 1240.31 32.12 1239.84 32.12C1239.43 32.12 1239.1 32.225 1238.85 32.435C1238.61 32.645 1238.49 32.95 1238.49 33.35C1238.49 33.63 1238.58 33.865 1238.76 34.055C1238.95 34.235 1239.18 34.385 1239.45 34.505C1239.73 34.615 1240.12 34.745 1240.62 34.895C1241.3 35.095 1241.85 35.295 1242.28 35.495C1242.71 35.695 1243.08 35.995 1243.39 36.395C1243.7 36.795 1243.86 37.32 1243.86 37.97C1243.86 38.53 1243.71 39.05 1243.42 39.53C1243.13 40.01 1242.71 40.395 1242.15 40.685C1241.59 40.965 1240.92 41.105 1240.15 41.105ZM1246.74 31.7C1246.37 31.7 1246.06 31.585 1245.81 31.355C1245.57 31.115 1245.45 30.82 1245.45 30.47C1245.45 30.12 1245.57 29.83 1245.81 29.6C1246.06 29.36 1246.37 29.24 1246.74 29.24C1247.11 29.24 1247.42 29.36 1247.66 29.6C1247.91 29.83 1248.03 30.12 1248.03 30.47C1248.03 30.82 1247.91 31.115 1247.66 31.355C1247.42 31.585 1247.11 31.7 1246.74 31.7ZM1247.78 32.69V41H1245.68V32.69H1247.78ZM1253.11 32.555C1253.73 32.555 1254.27 32.68 1254.74 32.93C1255.21 33.17 1255.58 33.485 1255.85 33.875V32.69H1257.97V41.06C1257.97 41.83 1257.81 42.515 1257.5 43.115C1257.19 43.725 1256.73 44.205 1256.11 44.555C1255.49 44.915 1254.74 45.095 1253.86 45.095C1252.68 45.095 1251.71 44.82 1250.95 44.27C1250.2 43.72 1249.77 42.97 1249.67 42.02H1251.76C1251.87 42.4 1252.1 42.7 1252.46 42.92C1252.83 43.15 1253.28 43.265 1253.8 43.265C1254.41 43.265 1254.9 43.08 1255.28 42.71C1255.66 42.35 1255.85 41.8 1255.85 41.06V39.77C1255.58 40.16 1255.21 40.485 1254.73 40.745C1254.26 41.005 1253.72 41.135 1253.11 41.135C1252.41 41.135 1251.77 40.955 1251.19 40.595C1250.61 40.235 1250.15 39.73 1249.81 39.08C1249.48 38.42 1249.31 37.665 1249.31 36.815C1249.31 35.975 1249.48 35.23 1249.81 34.58C1250.15 33.93 1250.6 33.43 1251.17 33.08C1251.75 32.73 1252.4 32.555 1253.11 32.555ZM1255.85 36.845C1255.85 36.335 1255.75 35.9 1255.55 35.54C1255.35 35.17 1255.08 34.89 1254.74 34.7C1254.4 34.5 1254.04 34.4 1253.65 34.4C1253.26 34.4 1252.9 34.495 1252.57 34.685C1252.24 34.875 1251.97 35.155 1251.76 35.525C1251.56 35.885 1251.46 36.315 1251.46 36.815C1251.46 37.315 1251.56 37.755 1251.76 38.135C1251.97 38.505 1252.24 38.79 1252.57 38.99C1252.91 39.19 1253.27 39.29 1253.65 39.29C1254.04 39.29 1254.4 39.195 1254.74 39.005C1255.08 38.805 1255.35 38.525 1255.55 38.165C1255.75 37.795 1255.85 37.355 1255.85 36.845ZM1264.62 32.57C1265.61 32.57 1266.41 32.885 1267.02 33.515C1267.63 34.135 1267.94 35.005 1267.94 36.125V41H1265.84V36.41C1265.84 35.75 1265.67 35.245 1265.34 34.895C1265.01 34.535 1264.56 34.355 1263.99 34.355C1263.41 34.355 1262.95 34.535 1262.61 34.895C1262.28 35.245 1262.12 35.75 1262.12 36.41V41H1260.02V32.69H1262.12V33.725C1262.4 33.365 1262.75 33.085 1263.18 32.885C1263.62 32.675 1264.1 32.57 1264.62 32.57ZM1275.61 30.53V41H1273.51V30.53H1275.61ZM1282.29 32.57C1283.28 32.57 1284.08 32.885 1284.69 33.515C1285.3 34.135 1285.6 35.005 1285.6 36.125V41H1283.5V36.41C1283.5 35.75 1283.34 35.245 1283.01 34.895C1282.68 34.535 1282.23 34.355 1281.66 34.355C1281.08 34.355 1280.62 34.535 1280.28 34.895C1279.95 35.245 1279.78 35.75 1279.78 36.41V41H1277.68V32.69H1279.78V33.725C1280.06 33.365 1280.42 33.085 1280.85 32.885C1281.29 32.675 1281.77 32.57 1282.29 32.57Z" fill="#E6FF94"/>
<rect x="1313.5" y="10" width="73" height="51" rx="5" fill="#9DDE8B"/>
<path d="M1332.64 39.335H1336.09V41H1330.54V30.53H1332.64V39.335ZM1341.11 41.135C1340.31 41.135 1339.59 40.96 1338.95 40.61C1338.31 40.25 1337.8 39.745 1337.43 39.095C1337.07 38.445 1336.89 37.695 1336.89 36.845C1336.89 35.995 1337.08 35.245 1337.45 34.595C1337.83 33.945 1338.34 33.445 1338.99 33.095C1339.64 32.735 1340.37 32.555 1341.17 32.555C1341.97 32.555 1342.69 32.735 1343.34 33.095C1343.99 33.445 1344.5 33.945 1344.87 34.595C1345.25 35.245 1345.44 35.995 1345.44 36.845C1345.44 37.695 1345.25 38.445 1344.86 39.095C1344.48 39.745 1343.96 40.25 1343.3 40.61C1342.65 40.96 1341.92 41.135 1341.11 41.135ZM1341.11 39.305C1341.49 39.305 1341.84 39.215 1342.17 39.035C1342.51 38.845 1342.78 38.565 1342.98 38.195C1343.18 37.825 1343.28 37.375 1343.28 36.845C1343.28 36.055 1343.07 35.45 1342.65 35.03C1342.24 34.6 1341.74 34.385 1341.14 34.385C1340.54 34.385 1340.03 34.6 1339.62 35.03C1339.22 35.45 1339.02 36.055 1339.02 36.845C1339.02 37.635 1339.22 38.245 1339.61 38.675C1340.01 39.095 1340.51 39.305 1341.11 39.305ZM1350.24 32.555C1350.86 32.555 1351.41 32.68 1351.88 32.93C1352.35 33.17 1352.72 33.485 1352.99 33.875V32.69H1355.1V41.06C1355.1 41.83 1354.95 42.515 1354.64 43.115C1354.33 43.725 1353.86 44.205 1353.24 44.555C1352.62 44.915 1351.87 45.095 1350.99 45.095C1349.81 45.095 1348.84 44.82 1348.08 44.27C1347.33 43.72 1346.91 42.97 1346.81 42.02H1348.89C1349 42.4 1349.24 42.7 1349.6 42.92C1349.97 43.15 1350.41 43.265 1350.93 43.265C1351.54 43.265 1352.04 43.08 1352.42 42.71C1352.8 42.35 1352.99 41.8 1352.99 41.06V39.77C1352.72 40.16 1352.34 40.485 1351.86 40.745C1351.39 41.005 1350.85 41.135 1350.24 41.135C1349.54 41.135 1348.9 40.955 1348.32 40.595C1347.74 40.235 1347.28 39.73 1346.94 39.08C1346.61 38.42 1346.45 37.665 1346.45 36.815C1346.45 35.975 1346.61 35.23 1346.94 34.58C1347.28 33.93 1347.74 33.43 1348.31 33.08C1348.89 32.73 1349.53 32.555 1350.24 32.555ZM1352.99 36.845C1352.99 36.335 1352.89 35.9 1352.69 35.54C1352.49 35.17 1352.22 34.89 1351.88 34.7C1351.54 34.5 1351.17 34.4 1350.78 34.4C1350.39 34.4 1350.03 34.495 1349.7 34.685C1349.37 34.875 1349.1 35.155 1348.89 35.525C1348.69 35.885 1348.59 36.315 1348.59 36.815C1348.59 37.315 1348.69 37.755 1348.89 38.135C1349.1 38.505 1349.37 38.79 1349.7 38.99C1350.04 39.19 1350.4 39.29 1350.78 39.29C1351.17 39.29 1351.54 39.195 1351.88 39.005C1352.22 38.805 1352.49 38.525 1352.69 38.165C1352.89 37.795 1352.99 37.355 1352.99 36.845ZM1358.22 31.7C1357.85 31.7 1357.54 31.585 1357.29 31.355C1357.05 31.115 1356.93 30.82 1356.93 30.47C1356.93 30.12 1357.05 29.83 1357.29 29.6C1357.54 29.36 1357.85 29.24 1358.22 29.24C1358.59 29.24 1358.89 29.36 1359.13 29.6C1359.38 29.83 1359.51 30.12 1359.51 30.47C1359.51 30.82 1359.38 31.115 1359.13 31.355C1358.89 31.585 1358.59 31.7 1358.22 31.7ZM1359.25 32.69V41H1357.15V32.69H1359.25ZM1365.93 32.57C1366.92 32.57 1367.72 32.885 1368.33 33.515C1368.94 34.135 1369.25 35.005 1369.25 36.125V41H1367.15V36.41C1367.15 35.75 1366.98 35.245 1366.65 34.895C1366.32 34.535 1365.87 34.355 1365.3 34.355C1364.72 34.355 1364.26 34.535 1363.92 34.895C1363.59 35.245 1363.43 35.75 1363.43 36.41V41H1361.33V32.69H1363.43V33.725C1363.71 33.365 1364.06 33.085 1364.49 32.885C1364.93 32.675 1365.41 32.57 1365.93 32.57Z" fill="#006769"/>
</g>
<defs>
<filter id="filter0_d_862_287" x="0" y="0" width="1448" height="79" filterUnits="userSpaceOnUse" color-interpolation-filters="sRGB">
<feFlood flood-opacity="0" result="BackgroundImageFix"/>
<feColorMatrix in="SourceAlpha" type="matrix" values="0 0 0 0 0 0 0 0 0 0 0 0 0 0 0 0 0 0 127 0" result="hardAlpha"/>
<feOffset dy="4"/>
<feGaussianBlur stdDeviation="2"/>
<feComposite in2="hardAlpha" operator="out"/>
<feColorMatrix type="matrix" values="0 0 0 0 0 0 0 0 0 0 0 0 0 0 0 0 0 0 0.25 0"/>
<feBlend mode="normal" in2="BackgroundImageFix" result="effect1_dropShadow_862_287"/>
<feBlend mode="normal" in="SourceGraphic" in2="effect1_dropShadow_862_287" result="shape"/>
</filter>
</defs>
</svg>
