<svg width="84" height="13" viewBox="0 0 84 13" fill="none" xmlns="http://www.w3.org/2000/svg">
<path d="M9.836 12.5H8.012L2.524 4.196V12.5H0.7V1.364H2.524L8.012 9.652V1.364H9.836V12.5ZM11.6233 8.052C11.6233 7.16667 11.8046 6.38267 12.1673 5.7C12.5406 5.01733 13.0419 4.48933 13.6713 4.116C14.3113 3.732 15.0153 3.54 15.7833 3.54C16.4766 3.54 17.0793 3.67867 17.5913 3.956C18.1139 4.22267 18.5299 4.55867 18.8393 4.964V3.684H20.6793V12.5H18.8393V11.188C18.5299 11.604 18.1086 11.9507 17.5753 12.228C17.0419 12.5053 16.4339 12.644 15.7513 12.644C14.9939 12.644 14.3006 12.452 13.6713 12.068C13.0419 11.6733 12.5406 11.1293 12.1673 10.436C11.8046 9.732 11.6233 8.93733 11.6233 8.052ZM18.8393 8.084C18.8393 7.476 18.7113 6.948 18.4553 6.5C18.2099 6.052 17.8846 5.71067 17.4793 5.476C17.0739 5.24133 16.6366 5.124 16.1673 5.124C15.6979 5.124 15.2606 5.24133 14.8553 5.476C14.4499 5.7 14.1193 6.036 13.8633 6.484C13.6179 6.92133 13.4953 7.444 13.4953 8.052C13.4953 8.66 13.6179 9.19333 13.8633 9.652C14.1193 10.1107 14.4499 10.4627 14.8553 10.708C15.2713 10.9427 15.7086 11.06 16.1673 11.06C16.6366 11.06 17.0739 10.9427 17.4793 10.708C17.8846 10.4733 18.2099 10.132 18.4553 9.684C18.7113 9.22533 18.8393 8.692 18.8393 8.084ZM24.899 4.996C25.2083 4.56933 25.6297 4.22267 26.163 3.956C26.707 3.67867 27.3097 3.54 27.971 3.54C28.7497 3.54 29.4537 3.72667 30.083 4.1C30.7123 4.47333 31.2083 5.00667 31.571 5.7C31.9337 6.38267 32.115 7.16667 32.115 8.052C32.115 8.93733 31.9337 9.732 31.571 10.436C31.2083 11.1293 30.707 11.6733 30.067 12.068C29.4377 12.452 28.739 12.644 27.971 12.644C27.2883 12.644 26.6803 12.5107 26.147 12.244C25.6243 11.9773 25.2083 11.636 24.899 11.22V12.5H23.075V0.66H24.899V4.996ZM30.259 8.052C30.259 7.444 30.131 6.92133 29.875 6.484C29.6297 6.036 29.299 5.7 28.883 5.476C28.4777 5.24133 28.0403 5.124 27.571 5.124C27.1123 5.124 26.675 5.24133 26.259 5.476C25.8537 5.71067 25.523 6.052 25.267 6.5C25.0217 6.948 24.899 7.476 24.899 8.084C24.899 8.692 25.0217 9.22533 25.267 9.684C25.523 10.132 25.8537 10.4733 26.259 10.708C26.675 10.9427 27.1123 11.06 27.571 11.06C28.0403 11.06 28.4777 10.9427 28.883 10.708C29.299 10.4627 29.6297 10.1107 29.875 9.652C30.131 9.19333 30.259 8.66 30.259 8.052ZM41.9028 3.684V12.5H40.0788V11.46C39.7908 11.8227 39.4121 12.1107 38.9428 12.324C38.4841 12.5267 37.9934 12.628 37.4708 12.628C36.7774 12.628 36.1534 12.484 35.5988 12.196C35.0548 11.908 34.6228 11.4813 34.3028 10.916C33.9934 10.3507 33.8388 9.668 33.8388 8.868V3.684H35.6468V8.596C35.6468 9.38533 35.8441 9.99333 36.2388 10.42C36.6334 10.836 37.1721 11.044 37.8548 11.044C38.5374 11.044 39.0761 10.836 39.4708 10.42C39.8761 9.99333 40.0788 9.38533 40.0788 8.596V3.684H41.9028ZM46.1334 4.964C46.4 4.516 46.752 4.16933 47.1894 3.924C47.6374 3.668 48.1654 3.54 48.7734 3.54V5.428H48.3094C47.5947 5.428 47.0507 5.60933 46.6774 5.972C46.3147 6.33467 46.1334 6.964 46.1334 7.86V12.5H44.3094V3.684H46.1334V4.964ZM58.2383 1.38C59.4223 1.38 60.4569 1.60933 61.3423 2.068C62.2383 2.516 62.9263 3.16667 63.4062 4.02C63.8969 4.86267 64.1423 5.84933 64.1423 6.98C64.1423 8.11067 63.8969 9.092 63.4062 9.924C62.9263 10.756 62.2383 11.396 61.3423 11.844C60.4569 12.2813 59.4223 12.5 58.2383 12.5H54.6063V1.38H58.2383ZM58.2383 11.012C59.5396 11.012 60.5369 10.66 61.2303 9.956C61.9236 9.252 62.2703 8.26 62.2703 6.98C62.2703 5.68933 61.9236 4.68133 61.2303 3.956C60.5369 3.23067 59.5396 2.868 58.2383 2.868H56.4303V11.012H58.2383ZM74.03 7.876C74.03 8.20667 74.0087 8.50533 73.966 8.772H67.23C67.2833 9.476 67.5447 10.0413 68.014 10.468C68.4833 10.8947 69.0593 11.108 69.742 11.108C70.7233 11.108 71.4167 10.6973 71.822 9.876H73.79C73.5233 10.6867 73.038 11.3533 72.334 11.876C71.6407 12.388 70.7767 12.644 69.742 12.644C68.8993 12.644 68.142 12.4573 67.47 12.084C66.8087 11.7 66.286 11.1667 65.902 10.484C65.5287 9.79067 65.342 8.99067 65.342 8.084C65.342 7.17733 65.5233 6.38267 65.886 5.7C66.2593 5.00667 66.7767 4.47333 67.438 4.1C68.11 3.72667 68.878 3.54 69.742 3.54C70.574 3.54 71.3153 3.72133 71.966 4.084C72.6167 4.44667 73.1233 4.95867 73.486 5.62C73.8487 6.27067 74.03 7.02267 74.03 7.876ZM72.126 7.3C72.1153 6.628 71.8753 6.08933 71.406 5.684C70.9367 5.27867 70.3553 5.076 69.662 5.076C69.0327 5.076 68.494 5.27867 68.046 5.684C67.598 6.07867 67.3313 6.61733 67.246 7.3H72.126ZM79.233 10.868L81.729 3.684H83.665L80.305 12.5H78.129L74.785 3.684H76.737L79.233 10.868Z" fill="black"/>
</svg>
